HIERARCHY
ROOT Hips
{
  OFFSET 0.0000 0.0000 0.0000
  CHANNELS 6 Xposition Yposition Zposition Zrotation Xrotation Yrotation
  JOINT LeftHip
  {
    OFFSET 3.4300 0.0000 0.0000
    CHANNELS 3 Zrotation Xrotation Yrotation
    JOINT LeftKnee
    {
      OFFSET 0.0000 -18.4700 0.0000
      CHANNELS 3 Zrotation Xrotation Yrotation
      JOINT LeftAnkle
      {
        OFFSET -0.0000 -17.9500 0.0000
        CHANNELS 3 Zrotation Xrotation Yrotation
        End Site
        {
            OFFSET 0.0000 -3.1200 -0.0000
        }
      }
    }
  }
  JOINT RightHip
  {
    OFFSET -3.4300 0.0000 0.0000
    CHANNELS 3 Zrotation Xrotation Yrotation
    JOINT RightKnee
    {
      OFFSET -0.0000 -18.4700 0.0000
      CHANNELS 3 Zrotation Xrotation Yrotation
      JOINT RightAnkle
      {
        OFFSET 0.0000 -17.9500 -0.0000
        CHANNELS 3 Zrotation Xrotation Yrotation
        End Site
        {
            OFFSET 0.0000 -3.1200 0.0000
        }
      }
    }
  }
  JOINT Chest
  {
    OFFSET 0.0000 4.5700 -0.0000
    CHANNELS 3 Zrotation Xrotation Yrotation
    JOINT Chest2
    {
      OFFSET 0.0000 6.5700 0.0000
      CHANNELS 3 Zrotation Xrotation Yrotation
      JOINT LeftCollar
      {
        OFFSET 1.0600 4.1900 1.7600
        CHANNELS 3 Zrotation Xrotation Yrotation
        JOINT LeftShoulder
        {
          OFFSET 5.8100 0.0000 0.0000
          CHANNELS 3 Zrotation Xrotation Yrotation
          JOINT LeftElbow
          {
            OFFSET 0.0000 -12.0800 0.0000
            CHANNELS 3 Zrotation Xrotation Yrotation
            JOINT LeftWrist
            {
              OFFSET -0.0000 -9.8200 0.0000
              CHANNELS 3 Zrotation Xrotation Yrotation
              End Site
              {
                  OFFSET 0.0000 -7.3700 -0.0000
              }
            }
          }
        }
      }
      JOINT RightCollar
      {
        OFFSET -1.0600 4.1900 1.7600
        CHANNELS 3 Zrotation Xrotation Yrotation
        JOINT RightShoulder
        {
          OFFSET -6.0600 0.0000 -0.0000
          CHANNELS 3 Zrotation Xrotation Yrotation
          JOINT RightElbow
          {
            OFFSET 0.0000 -11.0800 0.0000
            CHANNELS 3 Zrotation Xrotation Yrotation
            JOINT RightWrist
            {
              OFFSET 0.0000 -9.8200 0.0000
              CHANNELS 3 Zrotation Xrotation Yrotation
              End Site
              {
                  OFFSET 0.0000 -7.1400 0.0000
              }
            }
          }
        }
      }
      JOINT Neck
      {
        OFFSET 0.0000 4.0500 0.0000
        CHANNELS 3 Zrotation Xrotation Yrotation
        JOINT Head
        {
          OFFSET -0.0000 5.1900 0.0000
          CHANNELS 3 Zrotation Xrotation Yrotation
          End Site
          {
              OFFSET 0.0000 4.1400 0.0000
          }
        }
      }
    }
  }
}
MOTION
Frames:	22
Frame Time:	0.033333
11.0549 38.9599 5.6073 4.68 -0.84 83.98 -0.08 0.66 5.76 -0.11 30.68 -19.84 10.52 -22.93 2.41 -3.41 -17.19 -15.60 0.16 24.78 23.96 -3.16 -1.47 -0.51 2.77 7.42 -0.68 0.12 0.33 -0.07 10.00 0.00 -0.00 0.95 -58.39 18.22 0.18 0.40 -0.00 -7.73 14.47 -59.81 -10.00 -0.00 0.00 -14.93 -24.11 -48.13 -0.33 0.04 0.00 10.54 18.73 83.11 0.23 -1.19 0.81 1.21 7.76 0.50 
11.5277 38.9019 5.9330 3.71 -0.99 84.64 0.10 -1.30 5.31 -0.10 33.63 -19.00 10.76 -22.21 3.14 -3.00 -18.19 -15.53 0.15 26.74 23.03 -3.99 -3.28 -0.75 3.27 6.08 -0.77 0.14 0.27 -0.10 10.00 0.00 -0.00 1.74 -54.93 21.44 0.18 0.41 -0.00 -6.74 16.13 -59.67 -10.00 -0.00 0.00 -14.93 -25.06 -47.31 -0.32 0.05 0.00 8.71 19.32 83.64 0.30 -1.19 1.05 1.44 7.81 0.68 
12.0488 39.0757 6.2184 5.31 -0.93 85.43 0.53 -0.88 5.50 -0.09 34.80 -17.29 9.29 -20.38 2.77 -3.03 -14.78 -16.84 0.15 25.45 23.40 -4.32 -3.70 -0.78 3.23 7.58 -0.81 0.14 0.34 -0.10 10.00 0.00 -0.00 2.21 -53.61 26.18 0.19 0.38 -0.00 -3.28 21.42 -63.38 -10.00 -0.00 0.00 -14.91 -25.78 -45.47 -0.32 0.07 0.00 10.99 18.50 80.78 0.15 -1.19 0.51 1.43 7.91 0.12 
12.4448 39.2071 6.5345 6.19 -1.40 84.58 1.73 -0.94 5.90 -0.08 34.19 -15.92 7.50 -20.30 2.00 -1.83 -12.52 -16.11 0.15 24.07 23.45 -4.62 -3.70 -0.76 3.50 8.53 -0.90 0.15 0.38 -0.11 10.00 0.00 -0.00 5.18 -51.45 32.04 0.20 0.35 -0.00 -0.82 25.94 -67.32 -10.00 -0.00 0.00 -14.08 -28.24 -43.58 -0.31 0.09 0.00 11.55 16.71 79.45 0.38 -1.18 1.31 1.31 7.78 0.99 
12.7356 39.2135 6.7433 5.12 -1.16 83.67 2.00 -2.98 6.02 -0.07 32.04 -14.43 5.52 -21.63 0.97 -1.72 -13.52 -15.74 0.15 24.91 23.67 -5.19 -4.52 -0.88 3.19 7.34 -0.79 0.14 0.32 -0.09 10.00 0.00 -0.00 7.74 -48.47 35.50 0.23 0.29 -0.00 -0.88 29.46 -71.52 -10.00 -0.00 0.00 -13.13 -29.58 -41.60 -0.31 0.09 0.00 13.29 13.55 78.98 0.57 -1.18 1.96 1.23 7.78 1.70 
12.9152 39.3198 6.7186 4.20 -0.29 83.86 0.94 -5.29 5.80 -0.10 30.87 -17.36 4.33 -20.34 0.39 -2.58 -14.02 -15.91 0.15 24.73 23.67 -5.14 -4.86 -0.86 2.68 6.36 -0.63 0.12 0.28 -0.07 10.00 0.00 -0.00 8.71 -46.47 37.75 0.26 0.20 -0.00 -1.95 33.67 -77.18 -10.00 -0.00 0.00 -12.39 -29.09 -38.97 -0.28 0.16 0.00 15.22 7.97 74.30 0.58 -1.18 2.01 1.22 7.50 1.75 
13.0007 39.3984 6.6355 3.55 0.61 83.65 -1.06 -7.12 5.95 -0.10 29.52 -17.20 7.09 -19.08 1.91 -3.64 -14.72 -16.19 0.16 25.05 23.98 -5.17 -5.17 -0.87 2.01 5.78 -0.46 0.09 0.26 -0.05 10.00 0.00 -0.00 9.14 -44.12 38.10 0.28 0.15 -0.00 -3.85 35.58 -79.42 -10.00 -0.00 0.00 -11.64 -28.39 -35.35 -0.26 0.21 0.00 16.65 1.90 71.01 0.58 -1.18 2.01 0.81 7.62 1.87 
12.9919 39.4972 6.5467 3.67 1.12 83.57 -2.64 -7.05 6.44 -0.11 27.22 -18.10 7.71 -15.19 2.23 -4.22 -14.39 -16.26 0.16 24.47 24.10 -4.95 -4.91 -0.80 1.54 6.40 -0.36 0.07 0.28 -0.03 10.00 0.00 -0.00 9.12 -42.60 38.45 0.29 0.13 -0.00 -4.80 36.40 -79.82 -10.00 -0.00 0.00 -11.16 -28.35 -32.79 -0.24 0.26 0.00 18.68 -2.68 68.19 0.50 -1.18 1.73 0.66 7.06 1.63 
12.8243 39.5083 6.4890 2.67 1.04 83.13 -2.75 -8.33 7.21 -0.10 26.71 -16.92 7.59 -14.52 1.97 -3.84 -15.71 -15.32 0.15 24.32 23.46 -4.70 -4.55 -0.73 1.63 5.98 -0.37 0.07 0.26 -0.03 10.00 0.00 -0.00 8.81 -40.72 38.67 0.29 0.14 -0.00 -5.26 35.97 -78.64 -10.00 -0.00 0.00 -10.75 -28.31 -29.64 -0.22 0.32 0.00 20.97 -7.17 64.83 0.62 -1.18 2.14 0.59 6.65 2.08 
12.5798 39.4877 6.4917 1.68 0.86 81.31 -2.18 -9.59 7.62 -0.08 26.64 -14.97 6.76 -14.49 1.36 -3.14 -17.41 -14.14 0.16 24.55 24.24 -4.82 -4.04 -0.66 1.42 5.75 -0.32 0.06 0.25 -0.03 10.00 0.00 -0.00 9.60 -38.02 38.19 0.28 0.15 -0.00 -6.57 34.25 -76.90 -10.00 -0.00 0.00 -9.62 -28.74 -25.84 -0.21 0.34 0.00 23.16 -11.49 64.01 0.80 -1.17 2.78 0.44 5.90 2.80 
12.2358 39.4076 6.4328 1.05 0.20 80.66 -1.20 -11.31 8.27 -0.08 27.98 -14.74 6.79 -14.65 1.26 -2.10 -18.72 -13.02 0.16 24.72 23.90 -4.64 -3.50 -0.57 1.73 6.16 -0.40 0.08 0.27 -0.04 10.00 0.00 -0.00 10.02 -37.94 37.95 0.28 0.15 -0.00 -6.62 33.96 -76.87 -10.00 -0.00 0.00 -9.27 -28.21 -23.27 -0.20 0.37 0.00 24.61 -15.24 63.93 0.89 -1.17 3.10 1.06 4.80 2.98 
11.7679 39.2803 6.2374 0.55 0.08 81.14 -1.08 -13.49 7.82 -0.07 29.73 -14.23 6.89 -14.70 1.29 -2.22 -20.40 -13.04 0.15 25.51 23.77 -4.40 -3.13 -0.55 1.69 6.83 -0.41 0.07 0.30 -0.04 10.00 0.00 -0.00 10.18 -41.43 38.57 0.28 0.16 -0.00 -4.71 36.14 -77.51 -10.00 -0.00 0.00 -9.83 -27.47 -22.61 -0.19 0.39 0.00 24.40 -17.88 63.45 0.74 -1.17 2.58 1.68 3.86 2.29 
11.2699 39.2466 6.2065 0.61 0.02 79.31 -0.82 -14.19 8.55 -0.06 29.82 -12.65 6.36 -14.23 1.28 -1.37 -21.14 -11.24 0.16 25.42 24.53 -4.39 -2.22 -0.44 0.65 8.24 -0.17 0.03 0.36 -0.02 10.00 0.00 -0.00 11.26 -43.86 38.80 0.28 0.17 -0.00 -3.91 36.89 -77.98 -10.00 -0.00 0.00 -9.12 -29.57 -22.93 -0.20 0.35 0.00 25.65 -18.03 65.72 1.06 -1.16 3.66 2.98 2.82 3.13 
10.7912 39.1063 6.0011 -1.04 0.01 79.76 -0.73 -17.66 8.03 -0.06 31.79 -12.51 6.68 -14.31 1.35 -1.25 -23.77 -10.25 0.15 26.38 23.23 -3.94 -2.37 -0.40 0.50 7.50 -0.13 0.02 0.33 -0.02 10.00 0.00 -0.00 11.40 -49.49 42.36 0.31 0.08 -0.00 3.71 40.20 -90.06 -10.00 -0.00 0.00 -9.15 -29.48 -26.25 -0.20 0.35 0.00 22.88 -16.65 64.78 1.02 -1.16 3.55 4.39 2.36 2.68 
10.4003 38.9896 5.8209 -1.44 -0.20 79.07 -0.53 -19.29 7.97 -0.05 33.07 -11.72 6.72 -14.36 1.39 -0.85 -24.96 -9.21 0.15 27.95 23.82 -4.09 -3.05 -0.43 0.31 7.83 -0.09 0.01 0.35 -0.02 10.00 0.00 -0.00 11.27 -54.00 44.55 0.33 0.04 -0.00 9.82 41.74 -98.48 -10.00 -0.00 0.00 -9.50 -30.39 -29.88 -0.22 0.32 0.00 18.88 -10.89 65.22 1.13 -1.15 3.92 5.00 2.62 2.92 
10.1205 38.8537 5.7666 -1.34 -0.69 77.84 0.28 -20.22 8.57 -0.04 34.61 -11.07 6.66 -14.82 1.46 0.12 -24.93 -7.33 0.15 31.59 23.82 -5.28 -6.30 -0.69 0.23 8.42 -0.07 0.01 0.37 -0.02 10.00 0.00 -0.00 12.42 -57.70 46.04 0.34 -0.00 0.00 12.42 42.72 -104.32 -10.00 -0.00 0.00 -9.56 -30.43 -32.69 -0.23 0.29 0.00 16.04 -3.42 66.59 1.26 -1.14 4.37 5.00 3.08 3.37 
10.0782 38.8709 5.6065 0.50 -0.92 79.15 -0.37 -18.26 7.81 -0.06 34.16 -13.49 7.47 -14.18 1.38 -0.62 -21.77 -7.94 0.16 34.87 25.36 -4.56 -10.50 -1.08 0.37 10.27 -0.11 0.02 0.45 -0.02 10.00 0.00 -0.00 10.29 -63.30 46.16 0.34 -0.00 0.00 17.52 44.77 -113.74 -10.00 -0.00 0.00 -11.13 -27.76 -36.36 -0.26 0.20 0.00 15.20 3.60 71.37 1.08 -1.15 3.75 4.70 4.23 2.74 
10.1215 38.8277 5.6686 1.80 -1.40 79.35 0.08 -17.34 8.46 -0.08 34.62 -15.48 8.05 -13.91 1.71 -0.39 -17.52 -6.44 0.15 37.53 24.54 -6.62 -14.86 -0.60 0.36 11.07 -0.11 0.02 0.49 -0.02 10.00 0.00 -0.00 7.11 -65.89 37.03 0.34 -0.00 0.00 13.03 46.54 -111.40 -10.00 -0.00 0.00 -12.35 -25.13 -38.80 -0.30 0.11 0.00 15.16 11.53 76.90 1.02 -1.16 3.53 4.77 5.28 2.44 
10.0653 38.7836 5.6524 2.86 -0.96 79.68 -0.63 -16.35 7.71 -0.05 34.96 -12.33 7.16 -14.70 1.41 -1.53 -16.41 -6.20 0.16 43.70 26.72 -3.46 -15.33 0.19 -0.39 11.57 0.11 -0.02 0.51 0.01 10.00 0.00 -0.00 2.39 -67.70 25.24 0.34 -0.00 0.00 4.78 45.79 -106.09 -10.00 -0.00 0.00 -13.56 -22.77 -41.02 -0.34 -0.00 -0.00 15.62 17.97 83.68 0.92 -1.16 3.20 5.46 6.02 1.87 
10.0055 38.6688 5.5972 3.04 -0.43 80.38 -1.51 -16.91 6.68 -0.05 35.86 -12.81 7.44 -14.86 1.43 -2.94 -14.78 -6.32 0.17 48.27 27.97 -8.65 -12.40 -0.67 -0.84 11.10 0.24 -0.04 0.49 0.03 10.00 0.00 -0.00 -4.02 -68.50 9.77 0.34 -0.00 0.00 -9.23 43.93 -91.08 -10.00 -0.00 0.00 -14.88 -19.04 -42.03 -0.34 -0.00 -0.00 16.87 23.45 91.26 0.76 -1.17 2.63 5.54 6.36 1.23 
9.8950 38.6780 5.5779 3.53 -0.66 80.82 -1.48 -16.80 6.38 -0.05 35.80 -12.62 7.36 -14.40 1.39 -3.91 -14.79 -6.34 0.19 53.00 29.57 -0.08 -8.25 1.13 -0.54 11.22 0.16 -0.02 0.49 0.02 10.00 0.00 -0.00 -10.26 -69.22 -2.60 0.34 -0.00 0.00 -16.19 40.84 -83.11 -10.00 -0.00 0.00 -15.77 -16.14 -41.49 -0.34 -0.00 -0.00 19.13 28.56 96.72 0.76 -1.17 2.65 5.17 6.85 1.33 
9.7553 38.7627 5.5181 5.14 -0.64 80.81 -2.18 -14.70 5.59 -0.05 34.71 -12.03 7.16 -13.88 1.21 -5.27 -12.19 -6.95 0.20 54.68 30.57 0.97 -3.63 1.26 -0.51 12.90 0.16 -0.02 0.57 0.02 10.00 0.00 -0.00 -13.49 -69.77 -14.27 0.34 -0.00 0.00 -23.75 36.36 -73.76 -10.00 -0.00 0.00 -17.02 -14.30 -38.54 -0.34 -0.00 -0.00 24.55 33.76 96.24 0.69 -1.17 2.38 4.22 6.51 1.33 
